<?xml version="1.0" encoding="UTF-8"?>
<svg xmlns="http://www.w3.org/2000/svg" xmlns:xlink="http://www.w3.org/1999/xlink" viewBox="0 0 1758.64 424.06">
  <defs>
    <style>
      .cls-1 {
        fill: #fff;
      }

      .cls-2 {
        fill: #a7a9ac;
      }

      .cls-3 {
        fill: #b1b3b6;
      }

      .cls-4 {
        clip-path: url(#clippath-1);
      }

      .cls-5 {
        fill: #005826;
      }

      .cls-6 {
        fill: #6d6e71;
      }

      .cls-7 {
        font-family: Aquatico-Regular, Aquatico;
        font-size: 178px;
      }

      .cls-8 {
        fill: #007f3e;
      }

      .cls-9 {
        clip-path: url(#clippath);
      }

      .cls-10, .cls-11, .cls-12 {
        fill: none;
      }

      .cls-11 {
        stroke: #005826;
      }

      .cls-11, .cls-12 {
        stroke-miterlimit: 10;
        stroke-width: 38.17px;
      }

      .cls-12 {
        stroke: #007236;
      }

      .cls-13 {
        fill: #02723b;
      }
    </style>
    <clipPath id="clippath">
      <rect class="cls-10" y="0" width="424.06" height="424.06"/>
    </clipPath>
    <clipPath id="clippath-1">
      <rect class="cls-10" y="0" width="424.06" height="424.06"/>
    </clipPath>
  </defs>
  <g id="Layer_1" data-name="Layer 1">
    <g class="cls-9">
      <polygon class="cls-6" points="341.37 413.46 82.69 203.36 82.69 189.41 341.37 399.52 341.37 413.46"/>
      <polygon class="cls-2" points="341.37 400.2 82.69 190.09 82.69 141.67 341.37 351.66 341.37 400.2"/>
      <rect class="cls-6" y="200.72" width="74.21" height="11.31"/>
      <rect class="cls-1" y="127.22" width="74.21" height="74.21"/>
      <rect class="cls-6" x="9.86" y="137.11" width="54.3" height="11.31"/>
      <path class="cls-3" d="M10.6,137.82H63.61v53.01H10.6v-53.01ZM0,201.43H74.21V127.22H0v74.21Z"/>
      <rect class="cls-6" x="349.85" y="412.76" width="74.21" height="11.31"/>
      <rect class="cls-3" x="349.85" y="339.25" width="74.21" height="74.21"/>
      <g class="cls-4">
        <path class="cls-11" d="M341.37,47.12c-43.97,0-66.52,19.91-89.2,83.62l-79.41,194.74c-26.13,58.3-57.23,61.71-90.06,61.71"/>
        <path class="cls-12" d="M341.37,37.11c-37.22,0-67.06,13.31-89.2,66.55l-85.62,209.97c-28.56,62.72-52.44,62.6-83.85,62.6"/>
        <rect class="cls-5" y="412.76" width="74.21" height="11.31"/>
        <rect class="cls-1" y="339.25" width="74.21" height="74.21"/>
        <rect class="cls-5" x="9.86" y="349.26" width="54.3" height="11.19"/>
        <path class="cls-8" d="M63.61,402.86H10.6v-53.01H63.61v53.01Zm10.6-63.61H0v74.21H74.21v-74.21Z"/>
        <rect class="cls-5" x="349.85" y="73.58" width="74.21" height="11.23"/>
        <rect class="cls-8" x="349.85" y="0" width="74.21" height="74.21"/>
      </g>
    </g>
  </g>
  <g id="Layer_2" data-name="Layer 2">
    <text class="cls-7" transform="translate(335.36 282.39)"><tspan class="cls-1" x="0" y="0">Cross</tspan><tspan class="cls-13" x="723.21" y="0">cures</tspan></text>
  </g>
</svg>