<?xml version="1.0" encoding="UTF-8"?>
<svg xmlns="http://www.w3.org/2000/svg" xmlns:xlink="http://www.w3.org/1999/xlink" viewBox="0 0 1744.4 424.06">
  <defs>
    <style>
      .cls-1 {
        fill: #fff;
      }

      .cls-2 {
        fill: #a7a9ac;
      }

      .cls-3 {
        fill: #b1b3b6;
      }

      .cls-4 {
        clip-path: url(#clippath-1);
      }

      .cls-5 {
        fill: #005826;
      }

      .cls-6 {
        fill: #6d6e71;
      }

      .cls-7 {
        fill: #007f3e;
      }

      .cls-8 {
        clip-path: url(#clippath);
      }

      .cls-9, .cls-10, .cls-11 {
        fill: none;
      }

      .cls-10 {
        stroke: #005826;
      }

      .cls-10, .cls-11 {
        stroke-miterlimit: 10;
        stroke-width: 38.17px;
      }

      .cls-11 {
        stroke: #007236;
      }
    </style>
    <clipPath id="clippath">
      <rect class="cls-9" y="0" width="424.06" height="424.06"/>
    </clipPath>
    <clipPath id="clippath-1">
      <rect class="cls-9" y="0" width="424.06" height="424.06"/>
    </clipPath>
  </defs>
  <g id="Layer_1" data-name="Layer 1">
    <g class="cls-8">
      <polygon class="cls-6" points="341.37 413.46 82.69 203.36 82.69 189.41 341.37 399.52 341.37 413.46"/>
      <polygon class="cls-2" points="341.37 400.2 82.69 190.09 82.69 141.67 341.37 351.66 341.37 400.2"/>
      <rect class="cls-6" y="200.72" width="74.21" height="11.31"/>
      <rect class="cls-1" y="127.22" width="74.21" height="74.21"/>
      <rect class="cls-6" x="9.86" y="137.11" width="54.3" height="11.31"/>
      <path class="cls-3" d="M10.6,137.82H63.61v53.01H10.6v-53.01ZM0,201.43H74.21V127.22H0v74.21Z"/>
      <rect class="cls-6" x="349.85" y="412.76" width="74.21" height="11.31"/>
      <rect class="cls-3" x="349.85" y="339.25" width="74.21" height="74.21"/>
      <g class="cls-4">
        <path class="cls-10" d="M341.37,47.12c-43.97,0-66.52,19.91-89.2,83.62l-79.41,194.74c-26.13,58.3-57.23,61.71-90.06,61.71"/>
        <path class="cls-11" d="M341.37,37.11c-37.22,0-67.06,13.31-89.2,66.55l-85.62,209.97c-28.56,62.72-52.44,62.6-83.85,62.6"/>
        <rect class="cls-5" y="412.76" width="74.21" height="11.31"/>
        <rect class="cls-1" y="339.25" width="74.21" height="74.21"/>
        <rect class="cls-5" x="9.86" y="349.26" width="54.3" height="11.19"/>
        <path class="cls-7" d="M63.61,402.86H10.6v-53.01H63.61v53.01Zm10.6-63.61H0v74.21H74.21v-74.21Z"/>
        <rect class="cls-5" x="349.85" y="73.58" width="74.21" height="11.23"/>
        <rect class="cls-7" x="349.85" y="0" width="74.21" height="74.21"/>
      </g>
    </g>
  </g>
  <g id="Layer_2" data-name="Layer 2">
    <g>
      <path class="cls-1" d="M422.76,284.7c-9.97,0-19.58-1.96-28.66-5.87-8.54-3.74-16.38-8.9-23.14-15.66-6.76-6.59-11.93-14.42-15.66-23.14-3.92-8.9-5.7-18.33-5.7-27.95s1.96-19.22,5.7-28.12c3.74-8.54,9.08-16.38,15.84-22.96,6.76-6.76,14.77-11.93,23.5-15.66,9.08-3.74,18.69-5.7,28.48-5.7,16.02,0,30.97,4.98,43.43,14.6,3.92,3.03,4.63,8.54,1.78,12.46-3.03,3.92-8.72,4.63-12.46,1.78-9.43-7.3-20.65-11.04-32.75-11.04-7.48,0-14.77,1.42-21.72,4.27-6.59,2.85-12.64,6.76-17.8,11.93s-9.08,10.86-11.93,17.44c-2.85,6.59-4.27,13.71-4.27,21s1.42,14.24,4.27,21c2.85,6.59,6.76,12.46,11.93,17.44,10.5,10.5,24.39,16.38,39.16,16.38,6.59,0,12.82-1.25,18.87-3.38,5.87-2.14,11.21-5.34,16.02-9.26,3.74-3.2,9.26-2.67,12.46,1.07,3.2,3.74,2.67,9.43-1.07,12.46-6.41,5.34-13.53,9.43-21.18,12.28-8.01,3.03-16.55,4.63-25.1,4.63Z"/>
      <path class="cls-1" d="M509.62,282.39c-4.98,0-8.9-4.09-8.9-8.9v-122.1c0-4.98,3.92-8.9,8.9-8.9h52.86c.71,0,4.98,0,10.5,1.42,7.83,1.96,14.77,5.87,19.94,11.04,4.09,3.92,7.12,8.72,9.26,14.24,2.49,6.05,3.56,12.99,3.56,20.65,0,16.73-7.12,29.72-20.47,37.38-3.2,1.78-6.76,3.38-10.68,4.45,7.65,6.59,14.6,14.95,20.11,24.74,4.63,7.83,9.61,7.83,10.32,7.83,4.81-.53,9.25,2.67,9.97,7.48,.71,4.81-2.67,9.43-7.48,10.15-1.25,.18-5.34,.53-10.86-1.25-4.81-1.78-11.75-5.7-17.27-15.31-6.23-10.68-13.88-19.05-22.78-24.74-6.23-4.09-10.86-5.34-11.21-5.34-4.63-.89-7.65-4.98-7.12-9.61,.36-4.63,4.27-8.01,8.9-8.01,12.64,0,22.43-1.96,29.37-5.87,7.83-4.45,11.39-11.39,11.39-21.89,0-7.12-1.25-12.99-3.92-17.62-1.96-3.38-4.63-6.05-8.19-8.19-6.23-3.56-12.82-3.74-13.35-3.74h-43.96v113.2c0,4.81-3.92,8.9-8.9,8.9Z"/>
      <path class="cls-1" d="M715.92,285.41c-9.79,0-19.4-1.96-28.48-5.87-8.72-3.74-16.55-8.9-23.32-15.66-6.59-6.76-11.93-14.42-15.66-23.14-3.74-8.9-5.7-18.33-5.7-27.95s1.96-19.22,5.87-28.12c3.74-8.54,9.08-16.38,15.84-22.96,6.76-6.76,14.59-11.93,23.32-15.66,9.08-3.74,18.69-5.7,28.66-5.7,19.4,0,37.56,7.65,51.08,21.54,6.59,6.59,11.57,14.42,15.13,22.96,3.74,8.9,5.52,18.33,5.52,27.95s-1.78,19.22-5.52,27.95c-3.56,8.72-8.72,16.55-15.31,23.14-13.71,13.88-31.86,21.54-51.44,21.54Zm.53-127.27c-7.48,0-14.77,1.42-21.71,4.27-6.76,2.85-12.64,6.76-17.8,11.93-5.16,4.98-9.26,10.86-11.93,17.44-3.03,6.59-4.45,13.71-4.45,21s1.42,14.24,4.27,21c2.85,6.59,6.76,12.46,11.93,17.44,10.5,10.5,24.38,16.38,39.16,16.38s28.48-5.87,38.8-16.2c4.98-4.98,8.72-10.86,11.57-17.44,2.67-6.76,4.09-13.88,4.09-21.18,0-14.6-5.52-28.3-15.49-38.45-10.15-10.5-23.85-16.2-38.45-16.2Z"/>
      <path class="cls-1" d="M867.58,284.52c-38.62,0-49.48-18.16-50.73-20.29-2.31-4.27-.71-9.79,3.56-12.1,4.27-2.31,9.61-.71,11.93,3.38,.36,.36,2.14,2.85,6.76,5.34,8.9,4.81,20.47,5.87,28.48,5.87,11.75,0,20.65-2.49,25.63-7.12,3.92-3.56,4.81-8.01,4.81-11.04,0-6.59-1.96-11.57-6.23-15.66-5.52-5.52-15.13-9.61-28.66-12.28-9.79-2.14-18.33-5.52-25.1-10.15-5.7-3.92-10.15-8.72-13.35-14.42-5.16-8.9-5.16-16.91-5.16-19.04,0-9.43,4.45-18.87,12.1-25.63,3.74-3.38,8.37-6.05,13.53-8.01,5.34-1.96,11.21-2.85,17.26-2.85,34.71,0,44.85,16.38,45.92,18.33,2.31,4.27,.89,9.79-3.38,12.1-4.27,2.31-9.61,.89-11.93-3.2-.36-.36-1.96-2.31-5.87-4.63-4.27-2.14-11.93-4.81-24.74-4.81-9.79,0-15.66,3.38-19.04,6.41-3.74,3.38-6.05,8.01-6.05,12.64v.36c0,.71,0,5.16,3.2,10.32,1.96,3.2,4.63,5.87,8.19,8.19,4.63,3.03,10.68,5.34,17.98,6.94,17.09,3.38,29.37,8.9,37.56,16.91,7.65,7.48,11.57,17.09,11.57,28.48,0,9.25-3.74,17.8-10.5,24.21-8.37,7.83-21.18,11.75-37.73,11.75Z"/>
      <path class="cls-1" d="M996.09,284.52c-38.62,0-49.48-18.16-50.73-20.29-2.31-4.27-.71-9.79,3.56-12.1,4.27-2.31,9.61-.71,11.93,3.38,.36,.36,2.14,2.85,6.76,5.34,8.9,4.81,20.47,5.87,28.48,5.87,11.75,0,20.65-2.49,25.63-7.12,3.92-3.56,4.81-8.01,4.81-11.04,0-6.59-1.96-11.57-6.23-15.66-5.52-5.52-15.13-9.61-28.66-12.28-9.79-2.14-18.33-5.52-25.1-10.15-5.7-3.92-10.15-8.72-13.35-14.42-5.16-8.9-5.16-16.91-5.16-19.04,0-9.43,4.45-18.87,12.1-25.63,3.74-3.38,8.37-6.05,13.53-8.01,5.34-1.96,11.21-2.85,17.27-2.85,34.71,0,44.85,16.38,45.92,18.33,2.31,4.27,.89,9.79-3.38,12.1-4.27,2.31-9.61,.89-11.92-3.2-.36-.36-1.96-2.31-5.87-4.63-4.27-2.14-11.93-4.81-24.74-4.81-9.79,0-15.66,3.38-19.05,6.41-3.74,3.38-6.05,8.01-6.05,12.64v.36c0,.71,0,5.16,3.2,10.32,1.96,3.2,4.63,5.87,8.19,8.19,4.63,3.03,10.68,5.34,17.98,6.94,17.09,3.38,29.37,8.9,37.56,16.91,7.65,7.48,11.57,17.09,11.57,28.48,0,9.25-3.74,17.8-10.5,24.21-8.37,7.83-21.18,11.75-37.73,11.75Z"/>
      <path class="cls-7" d="M1145.96,284.7c-9.97,0-19.58-1.96-28.66-5.87-8.54-3.74-16.38-8.9-23.14-15.66-6.76-6.59-11.93-14.42-15.66-23.14-3.92-8.9-5.7-18.33-5.7-27.95s1.96-19.22,5.7-28.12c3.74-8.54,9.08-16.38,15.84-22.96,6.76-6.76,14.77-11.93,23.5-15.66,9.08-3.74,18.69-5.7,28.48-5.7,16.02,0,30.97,4.98,43.43,14.6,3.92,3.03,4.63,8.54,1.78,12.46-3.03,3.92-8.72,4.63-12.46,1.78-9.43-7.3-20.65-11.04-32.75-11.04-7.48,0-14.77,1.42-21.71,4.27-6.59,2.85-12.64,6.76-17.8,11.93-4.98,4.98-9.08,10.86-11.93,17.44s-4.27,13.71-4.27,21,1.42,14.24,4.27,21c2.85,6.59,6.76,12.46,11.93,17.44,10.5,10.5,24.38,16.38,39.16,16.38,6.59,0,12.82-1.25,18.87-3.38,5.87-2.14,11.21-5.34,16.02-9.26,3.74-3.2,9.26-2.67,12.46,1.07,3.2,3.74,2.67,9.43-1.07,12.46-6.41,5.34-13.53,9.43-21.18,12.28-8.01,3.03-16.55,4.63-25.1,4.63Z"/>
      <path class="cls-7" d="M1282.85,284.52c-12.99,0-24.21-2.67-33.28-8.01-7.83-4.45-13.88-10.68-18.33-18.69-7.3-13.53-7.3-27.59-7.3-32.22v-74.22c0-4.81,4.09-8.9,8.9-8.9s8.9,4.09,8.9,8.9v74.22c0,3.56,0,14.24,5.16,23.67,2.85,5.16,6.58,9.08,11.57,11.92,6.23,3.56,14.42,5.52,24.38,5.52s18.16-1.96,24.39-5.52c4.81-2.85,8.72-6.76,11.39-11.75,5.16-9.61,5.16-20.29,5.16-23.85v-74.22c0-4.81,4.09-8.9,8.9-8.9s8.9,4.09,8.9,8.9v74.22c0,4.63,0,18.87-7.3,32.22-6.59,12.28-20.83,26.7-51.44,26.7Z"/>
      <path class="cls-7" d="M1378.97,282.39c-4.98,0-8.9-4.09-8.9-8.9v-122.1c0-4.98,3.92-8.9,8.9-8.9h52.86c.71,0,4.98,0,10.5,1.42,7.83,1.96,14.77,5.87,19.94,11.04,4.09,3.92,7.12,8.72,9.26,14.24,2.49,6.05,3.56,12.99,3.56,20.65,0,16.73-7.12,29.72-20.47,37.38-3.2,1.78-6.76,3.38-10.68,4.45,7.65,6.59,14.6,14.95,20.11,24.74,4.63,7.83,9.61,7.83,10.32,7.83,4.81-.53,9.26,2.67,9.97,7.48s-2.67,9.43-7.48,10.15c-1.25,.18-5.34,.53-10.86-1.25-4.81-1.78-11.75-5.7-17.26-15.31-6.23-10.68-13.88-19.05-22.78-24.74-6.23-4.09-10.86-5.34-11.21-5.34-4.63-.89-7.65-4.98-7.12-9.61,.36-4.63,4.27-8.01,8.9-8.01,12.64,0,22.43-1.96,29.37-5.87,7.83-4.45,11.39-11.39,11.39-21.89,0-7.12-1.25-12.99-3.92-17.62-1.96-3.38-4.63-6.05-8.19-8.19-6.23-3.56-12.82-3.74-13.35-3.74h-43.96v113.2c0,4.81-3.92,8.9-8.9,8.9Z"/>
      <path class="cls-7" d="M1615.88,273.31c0,4.98-3.92,8.9-8.9,8.9h-85.08c-4.81,0-8.9-3.92-8.9-8.9v-121.93c0-4.98,4.09-8.9,8.9-8.9h83.3c4.98,0,8.9,3.92,8.9,8.9s-3.92,8.9-8.9,8.9h-74.4v42.9h65.86c4.98,0,8.9,4.09,8.9,8.9s-3.92,8.9-8.9,8.9h-65.86v43.43h76.18c4.98,0,8.9,3.92,8.9,8.9Z"/>
      <path class="cls-7" d="M1696.16,284.52c-38.62,0-49.48-18.16-50.73-20.29-2.31-4.27-.71-9.79,3.56-12.1,4.27-2.31,9.61-.71,11.93,3.38,.36,.36,2.14,2.85,6.76,5.34,8.9,4.81,20.47,5.87,28.48,5.87,11.75,0,20.65-2.49,25.63-7.12,3.92-3.56,4.81-8.01,4.81-11.04,0-6.59-1.96-11.57-6.23-15.66-5.52-5.52-15.13-9.61-28.66-12.28-9.79-2.14-18.33-5.52-25.1-10.15-5.7-3.92-10.15-8.72-13.35-14.42-5.16-8.9-5.16-16.91-5.16-19.04,0-9.43,4.45-18.87,12.1-25.63,3.74-3.38,8.37-6.05,13.53-8.01,5.34-1.96,11.21-2.85,17.27-2.85,34.71,0,44.85,16.38,45.92,18.33,2.31,4.27,.89,9.79-3.38,12.1-4.27,2.31-9.61,.89-11.92-3.2-.36-.36-1.96-2.31-5.87-4.63-4.27-2.14-11.93-4.81-24.74-4.81-9.79,0-15.66,3.38-19.05,6.41-3.74,3.38-6.05,8.01-6.05,12.64v.36c0,.71,0,5.16,3.2,10.32,1.96,3.2,4.63,5.87,8.19,8.19,4.63,3.03,10.68,5.34,17.98,6.94,17.09,3.38,29.37,8.9,37.56,16.91,7.65,7.48,11.57,17.09,11.57,28.48,0,9.25-3.74,17.8-10.5,24.21-8.37,7.83-21.18,11.75-37.73,11.75Z"/>
    </g>
  </g>
</svg>